<svg width="36" height="36" viewBox="0 0 36 36" fill="none" xmlns="http://www.w3.org/2000/svg">
<path d="M24.2639 22.5H14.886C14.0523 22.5 13.3061 21.9829 13.0133 21.2022L9.50667 11.8511C9.26151 11.1974 9.74479 10.5 10.443 10.5H29.0729C30.188 10.5 30.9133 11.6735 30.4146 12.6708L26.0528 21.3944C25.714 22.072 25.0215 22.5 24.2639 22.5Z" fill="white"/>
<circle cx="25.5" cy="30" r="1.5" fill="#222222"/>
<circle cx="13.5" cy="30" r="1.5" fill="#222222"/>
<path d="M26.25 26.25H12.0764C11.2293 26.25 10.8058 26.25 10.5399 26.0519C10.3751 25.9291 10.2521 25.7585 10.1878 25.5633C10.0839 25.2484 10.2178 24.8466 10.4857 24.043V24.043C10.7818 23.1547 10.9298 22.7105 11.2205 22.3949C11.4035 22.1963 11.6248 22.0368 11.8712 21.926C12.2625 21.75 12.7307 21.75 13.6671 21.75H24.75" stroke="#222222" stroke-linecap="round" stroke-linejoin="round"/>
<path d="M5.25 6.75H8.30848C9.0042 6.75 9.35206 6.75 9.61395 6.93876C9.87584 7.12752 9.98584 7.45753 10.2058 8.11754L11.25 11.25" stroke="#222222" stroke-linecap="round"/>
</svg>
