<svg width="260" height="167" viewBox="0 0 260 167" fill="none" xmlns="http://www.w3.org/2000/svg">
<ellipse opacity="0.3" cx="4.5" cy="4.46265" rx="4.5" ry="3.76367" fill="#35736E"/>
<ellipse opacity="0.3" cx="40.5" cy="4.46265" rx="4.5" ry="3.76367" fill="#35736E"/>
<ellipse opacity="0.3" cx="76" cy="4.46265" rx="4" ry="3.76367" fill="#35736E"/>
<ellipse opacity="0.3" cx="112" cy="4.46265" rx="4" ry="3.76367" fill="#35736E"/>
<ellipse opacity="0.3" cx="148" cy="4.46265" rx="4" ry="3.76367" fill="#35736E"/>
<ellipse opacity="0.3" cx="184" cy="4.46265" rx="4" ry="3.76367" fill="#35736E"/>
<ellipse opacity="0.3" cx="220" cy="4.46265" rx="4" ry="3.76367" fill="#35736E"/>
<ellipse opacity="0.3" cx="256" cy="4.46265" rx="4" ry="3.76367" fill="#35736E"/>
<ellipse opacity="0.3" cx="4.5" cy="27.0447" rx="4.5" ry="3.76367" fill="#35736E"/>
<ellipse opacity="0.3" cx="40.5" cy="27.0447" rx="4.5" ry="3.76367" fill="#35736E"/>
<ellipse opacity="0.3" cx="76" cy="27.0447" rx="4" ry="3.76367" fill="#35736E"/>
<ellipse opacity="0.3" cx="112" cy="27.0447" rx="4" ry="3.76367" fill="#35736E"/>
<ellipse opacity="0.3" cx="148" cy="27.0447" rx="4" ry="3.76367" fill="#35736E"/>
<ellipse opacity="0.3" cx="184" cy="27.0447" rx="4" ry="3.76367" fill="#35736E"/>
<ellipse opacity="0.3" cx="220" cy="27.0447" rx="4" ry="3.76367" fill="#35736E"/>
<ellipse opacity="0.3" cx="256" cy="27.0447" rx="4" ry="3.76367" fill="#35736E"/>
<ellipse opacity="0.3" cx="4.5" cy="49.6267" rx="4.5" ry="3.76367" fill="#35736E"/>
<ellipse opacity="0.3" cx="40.5" cy="49.6267" rx="4.5" ry="3.76367" fill="#35736E"/>
<ellipse opacity="0.3" cx="76" cy="49.6267" rx="4" ry="3.76367" fill="#35736E"/>
<ellipse opacity="0.3" cx="112" cy="49.6267" rx="4" ry="3.76367" fill="#35736E"/>
<ellipse opacity="0.3" cx="148" cy="49.6267" rx="4" ry="3.76367" fill="#35736E"/>
<ellipse opacity="0.3" cx="184" cy="49.6267" rx="4" ry="3.76367" fill="#35736E"/>
<ellipse opacity="0.3" cx="220" cy="49.6267" rx="4" ry="3.76367" fill="#35736E"/>
<ellipse opacity="0.3" cx="256" cy="49.6267" rx="4" ry="3.76367" fill="#35736E"/>
<ellipse opacity="0.3" cx="4.5" cy="72.2087" rx="4.5" ry="3.76367" fill="#35736E"/>
<ellipse opacity="0.3" cx="40.5" cy="72.2087" rx="4.5" ry="3.76367" fill="#35736E"/>
<ellipse opacity="0.3" cx="76" cy="72.2087" rx="4" ry="3.76367" fill="#35736E"/>
<ellipse opacity="0.3" cx="112" cy="72.2087" rx="4" ry="3.76367" fill="#35736E"/>
<ellipse opacity="0.3" cx="148" cy="72.2087" rx="4" ry="3.76367" fill="#35736E"/>
<ellipse opacity="0.3" cx="184" cy="72.2087" rx="4" ry="3.76367" fill="#35736E"/>
<ellipse opacity="0.3" cx="220" cy="72.2087" rx="4" ry="3.76367" fill="#35736E"/>
<ellipse opacity="0.3" cx="256" cy="72.2087" rx="4" ry="3.76367" fill="#35736E"/>
<ellipse opacity="0.3" cx="4.5" cy="94.7908" rx="4.5" ry="3.76367" fill="#35736E"/>
<ellipse opacity="0.3" cx="40.5" cy="94.7908" rx="4.5" ry="3.76367" fill="#35736E"/>
<ellipse opacity="0.3" cx="76" cy="94.7908" rx="4" ry="3.76367" fill="#35736E"/>
<ellipse opacity="0.3" cx="112" cy="94.7908" rx="4" ry="3.76367" fill="#35736E"/>
<ellipse opacity="0.3" cx="148" cy="94.7908" rx="4" ry="3.76367" fill="#35736E"/>
<ellipse opacity="0.3" cx="184" cy="94.7908" rx="4" ry="3.76367" fill="#35736E"/>
<ellipse opacity="0.3" cx="220" cy="94.7908" rx="4" ry="3.76367" fill="#35736E"/>
<ellipse opacity="0.3" cx="256" cy="94.7908" rx="4" ry="3.76367" fill="#35736E"/>
<ellipse opacity="0.3" cx="4.5" cy="117.373" rx="4.5" ry="3.76367" fill="#35736E"/>
<ellipse opacity="0.3" cx="40.5" cy="117.373" rx="4.5" ry="3.76367" fill="#35736E"/>
<ellipse opacity="0.3" cx="76" cy="117.373" rx="4" ry="3.76367" fill="#35736E"/>
<ellipse opacity="0.3" cx="112" cy="117.373" rx="4" ry="3.76367" fill="#35736E"/>
<ellipse opacity="0.3" cx="148" cy="117.373" rx="4" ry="3.76367" fill="#35736E"/>
<ellipse opacity="0.3" cx="184" cy="117.373" rx="4" ry="3.76367" fill="#35736E"/>
<ellipse opacity="0.3" cx="220" cy="117.373" rx="4" ry="3.76367" fill="#35736E"/>
<ellipse opacity="0.3" cx="256" cy="117.373" rx="4" ry="3.76367" fill="#35736E"/>
<ellipse opacity="0.3" cx="4.5" cy="139.955" rx="4.5" ry="3.76367" fill="#35736E"/>
<ellipse opacity="0.3" cx="40.5" cy="139.955" rx="4.5" ry="3.76367" fill="#35736E"/>
<ellipse opacity="0.3" cx="76" cy="139.955" rx="4" ry="3.76367" fill="#35736E"/>
<ellipse opacity="0.3" cx="112" cy="139.955" rx="4" ry="3.76367" fill="#35736E"/>
<ellipse opacity="0.3" cx="148" cy="139.955" rx="4" ry="3.76367" fill="#35736E"/>
<ellipse opacity="0.3" cx="184" cy="139.955" rx="4" ry="3.76367" fill="#35736E"/>
<ellipse opacity="0.3" cx="220" cy="139.955" rx="4" ry="3.76367" fill="#35736E"/>
<ellipse opacity="0.3" cx="256" cy="139.955" rx="4" ry="3.76367" fill="#35736E"/>
<ellipse opacity="0.3" cx="4.5" cy="162.537" rx="4.5" ry="3.76367" fill="#35736E"/>
<ellipse opacity="0.3" cx="40.5" cy="162.537" rx="4.5" ry="3.76367" fill="#35736E"/>
<ellipse opacity="0.3" cx="76" cy="162.537" rx="4" ry="3.76367" fill="#35736E"/>
<ellipse opacity="0.3" cx="112" cy="162.537" rx="4" ry="3.76367" fill="#35736E"/>
<ellipse opacity="0.3" cx="148" cy="162.537" rx="4" ry="3.76367" fill="#35736E"/>
<ellipse opacity="0.3" cx="184" cy="162.537" rx="4" ry="3.76367" fill="#35736E"/>
<ellipse opacity="0.3" cx="220" cy="162.537" rx="4" ry="3.76367" fill="#35736E"/>
<ellipse opacity="0.3" cx="256" cy="162.537" rx="4" ry="3.76367" fill="#35736E"/>
</svg>
