<svg width="28" height="28" viewBox="0 0 28 28" fill="none" xmlns="http://www.w3.org/2000/svg">
<path d="M6 1.50696L2 6.52519V24.089C2 24.7545 2.28095 25.3927 2.78105 25.8632C3.28115 26.3338 3.95942 26.5981 4.66667 26.5981H23.3333C24.0406 26.5981 24.7189 26.3338 25.219 25.8632C25.719 25.3927 26 24.7545 26 24.089V6.52519L22 1.50696H6Z" stroke="black" stroke-width="2.66667" stroke-linecap="round" stroke-linejoin="round"/>
<path d="M19.3334 11.5433C19.3334 12.8743 18.7715 14.1507 17.7713 15.0918C16.7711 16.0329 15.4145 16.5616 14 16.5616C12.5855 16.5616 11.229 16.0329 10.2288 15.0918C9.22859 14.1507 8.66669 12.8743 8.66669 11.5433" stroke="black" stroke-width="2.66667" stroke-linecap="round" stroke-linejoin="round"/>
<path d="M2 6.52515H26" stroke="black" stroke-width="2.66667" stroke-linecap="round" stroke-linejoin="round"/>
</svg>
