<svg width="35" height="28" viewBox="0 0 35 28" fill="none" xmlns="http://www.w3.org/2000/svg">
<path d="M26.6591 25.9118C28.6046 25.9118 30.1818 24.4278 30.1818 22.5972C30.1818 20.7666 28.6046 19.2826 26.6591 19.2826C24.7135 19.2826 23.1364 20.7666 23.1364 22.5972C23.1364 24.4278 24.7135 25.9118 26.6591 25.9118Z" stroke="black" stroke-width="2.81818" stroke-linecap="round" stroke-linejoin="round"/>
<path d="M8.3409 25.9118C10.2865 25.9118 11.8636 24.4278 11.8636 22.5972C11.8636 20.7666 10.2865 19.2826 8.3409 19.2826C6.39535 19.2826 4.81818 20.7666 4.81818 22.5972C4.81818 24.4278 6.39535 25.9118 8.3409 25.9118Z" stroke="black" stroke-width="2.81818" stroke-linecap="round" stroke-linejoin="round"/>
<path d="M23.1364 8.67584H28.7727L33 12.6534V19.2826H23.1364V8.67584Z" stroke="black" stroke-width="2.81818" stroke-linecap="round" stroke-linejoin="round"/>
<path d="M23.1364 2.04663H2V19.2825H23.1364V2.04663Z" stroke="black" stroke-width="2.81818" stroke-linecap="round" stroke-linejoin="round"/>
</svg>
