<svg width="29" height="21" viewBox="0 0 29 21" fill="none" xmlns="http://www.w3.org/2000/svg">
<path d="M0.5672 3.53515C0.5672 1.6478 2.11297 0.118164 4.02024 0.118164H24.7385C26.643 0.118164 28.1915 1.6478 28.1915 3.53515V17.2031C28.1915 19.0878 26.643 20.6201 24.7385 20.6201H4.02024C2.11297 20.6201 0.5672 19.0878 0.5672 17.2031V3.53515ZM3.15698 3.53515V4.71508L12.464 12.2752C13.5754 13.1828 15.1833 13.1828 16.2947 12.2752L25.6017 4.71508V3.4871C25.6017 3.06531 25.2133 2.63285 24.7385 2.63285H4.02024C3.54329 2.63285 3.15698 3.06531 3.15698 3.4871V3.53515ZM3.15698 8.03062V17.2031C3.15698 17.6729 3.54329 18.0573 4.02024 18.0573H24.7385C25.2133 18.0573 25.6017 17.6729 25.6017 17.2031V8.03062L17.9403 14.2559C15.8685 15.9377 12.8902 15.9377 10.7699 14.2559L3.15698 8.03062Z" fill="#CFCFCF"/>
</svg>
